# xmcd
#
# Track frame offsets: 
#        150
#        21637
#        41520
#        66001
#        93021
#        113366
#        135133
#        153842
#        175656
#        199261
#
# Disc length: 2935 seconds
#
# Revision: 0
# Processed by: cddbd v1.5.2PL0 Copyright (c) Steve Scherf et al.
# Submitted via: ExactAudioCopy v1.0b3
#
DISCID=700b750a
DTITLE=Truong Vu - Chung Minh Ba Dua
DYEAR=1998
DGENRE=
TTITLE0=Dem tren dinh sau
TTITLE1=Tinh ban Quang Trung
TTITLE2=Chung minh ba dua
TTITLE3=Vuon tao ngo
TTITLE4=Dem buon pho thi
TTITLE5=Hai mua mua
TTITLE6=Van doi nguoi di
TTITLE7=Sai Gon thu bay
TTITLE8=Loi nguoi tinh xa xoi
TTITLE9=Giua long dat Me
EXTD=
EXTT0=
EXTT1=
EXTT2=
EXTT3=
EXTT4=
EXTT5=
EXTT6=
EXTT7=
EXTT8=
EXTT9=
PLAYORDER=
